/* XPM */
static char *_7ca69a2febc42979ced96ce0b41df8eIoQdWkiWBCK3zk1O[] = {
/* columns rows colors chars-per-pixel */
"16 16 63 1 ",
"  c #262523",
". c #272624",
"X c #282725",
"o c #2A2927",
"O c #2B2A28",
"+ c #2C2B2A",
"@ c #2E2D2B",
"# c #2F2E2C",
"$ c #302F2D",
"% c #31302F",
"& c #37362E",
"* c #38362F",
"= c #323130",
"- c #343332",
"; c #353432",
": c #373634",
"> c #383735",
", c #3B3931",
"< c #3C3A33",
"1 c #3F3D35",
"2 c #393938",
"3 c #3C3B39",
"4 c #3F3F3E",
"5 c #413F38",
"6 c #403F3E",
"7 c #424039",
"8 c #40403F",
"9 c #44423C",
"0 c #434341",
"q c #444341",
"w c #454442",
"e c #464644",
"r c #484746",
"t c #494847",
"y c #4A4A48",
"u c #4E4D4A",
"i c #4F4E4C",
"p c #504F4C",
"a c #53504A",
"s c #52514F",
"d c #535352",
"f c #545350",
"g c #565552",
"h c #565656",
"j c #595855",
"k c #5B5B5B",
"l c #5E5D5B",
"z c #5F5E5C",
"x c #605F5D",
"c c #636361",
"v c #646462",
"b c #676664",
"n c #696967",
"m c #6C6B69",
"M c #6E6D6B",
"N c #6F6E6D",
"B c #706F6D",
"V c #72716F",
"C c #727270",
"Z c #767573",
"A c #777675",
"S c #797977",
"D c #797978",
/* pixels */
"d0sg>Oo222400znm",
"xibBbfuu$ 8vBgun",
"k0%@;:>;@@+o@##4",
"ABgbbcmguvgulMBB",
"8XX#:+Xoooo%--OX",
"d084bi0ryspuust0",
"ABguulvMBb3#XdmB",
"eX .X#%#X OooXX ",
"h0%4084$o@lde80;",
"DCgvBguuulmBguvV",
"k0-#o @#+@@@#+o4",
"SnNC6#zVjnnbNjin",
"d222=##>22220000",
"t+o+vZZw-+XXzbcN",
"ieqkvsuuu0222+ ;",
"a*159<****&197,*"
};
