/* XPM */
static char *_4fda6b599c8447999e059e4bbcadb14tHT3GckSVF2ImOq9[] = {
/* columns rows colors chars-per-pixel */
"16 16 11 1 ",
"  c #3E2731",
". c #3A2834",
"X c #3D2C3B",
"o c #472B32",
"O c #4A2B32",
"+ c #743B36",
"@ c #733E39",
"# c #753E39",
"$ c #73413F",
"% c #794746",
"& c #804037",
/* pixels */
"$$$.$$$$$%$X@$$$",
"##& ######& ####",
"@@& @@@@@@& @@@@",
"ooO ooooooO oooo",
" +++++++ +++++++",
" ######& ######&",
" @@@@@@& @@@@@@&",
" ooooooO ooooooO",
"+++ +++++++ ++++",
"##& ######& ####",
"@@& @@@@@@& @@@@",
"ooO ooooooO oooo",
" +++++++ +++++++",
" ######& ######&",
" @@@@@@& @@@@@@&",
" ooooooO ooooooO"
};
