/* XPM */
static char *_7d8210690334335dfb4121cde796ce5vh0dWFq3o6PNe29x[] = {
/* columns rows colors chars-per-pixel */
"16 16 16 1 ",
"  c #676970",
". c #696A73",
"X c #6D6F76",
"o c #6F7079",
"O c #71727B",
"+ c #74767E",
"@ c gray49",
"# c #767880",
"$ c #818181",
"% c #868686",
"& c #8B8B8B",
"* c #8E8E8E",
"= c gray57",
"- c gray58",
"; c #9B9B9B",
": c #9F9F9F",
/* pixels */
"X oo#+o  +++O.  ",
"*$%%&&*&&=;=*$@&",
"=%%%%%$$$&*$$*=;",
";=&;;;%--;&%%*==",
"=*&=;=&&&&&;;;=&",
"=&==-=;=%%;:;=%$",
"*$%%**=&$&=&%$@%",
";-*@@$&%-;=%**-;",
"=;*%%%=&=;-&%%==",
"=-=;;=;;;*-;-@@&",
"***;=*;:=&*==%*;",
";=;*&=-:;=$@@&*=",
"=*&$$;*=&%@%%===",
"@@@*-:;;%%-=&***",
"%%%*&&&&$&=*$$$&",
";=;&%%@*-;$@@@-;"
};
