/* XPM */
static char *_7312d463a6245d9fa18f5d041c2c82cItHfGMBeST5xQBUu[] = {
/* columns rows colors chars-per-pixel */
"16 16 55 1 ",
"  c #4D5A35",
". c #4F5D36",
"X c #515E37",
"o c #536138",
"O c #545C45",
"+ c #55594B",
"@ c #585C4C",
"# c #5B5959",
"$ c #5E5D5D",
"% c #605E5E",
"& c #586049",
"* c #5B644B",
"= c #5C644E",
"- c #5F6650",
"; c #5F6454",
": c #657743",
"> c #657445",
", c #677945",
"< c #637049",
"1 c #646C56",
"2 c #6E7A56",
"3 c #69715A",
"4 c #6E765E",
"5 c #727E5A",
"6 c #606060",
"7 c #656363",
"8 c #656662",
"9 c #676666",
"0 c #686767",
"q c #686868",
"w c #6C6B6B",
"e c #6F6F6F",
"r c #6D7262",
"t c #6D7364",
"y c #707667",
"u c #727A62",
"i c gray45",
"p c gray46",
"a c #787777",
"s c #797979",
"d c gray50",
"f c #70834D",
"g c #798169",
"h c #7D876B",
"j c #7C846C",
"k c #7F896D",
"l c #7C8172",
"z c #828876",
"x c #838383",
"c c #868686",
"v c #888888",
"b c #8C8B8B",
"n c #8D8D8D",
"m c #909090",
"M c #9F9F9F",
/* pixels */
"cxcvy1cvnxnxinnm",
"pu2cdqppr>5t-sps",
"4:4dy=ipu2dy-pis",
"99666@XO6q06+O8i",
"csijfkcnxicxcvce",
"dp1,4ssdpqpu2psd",
"dp742ipdp9ppy>2d",
"06@oX&q6@oXO699e",
"cxnl3nxgfkcnMbpx",
"ipdpqpr<3ipsdpqp",
"2pdswi42pi42dsq0",
"+.*0;oXO$#%999$e",
"cspvzhxcmcpvcccg",
"dpqy4sppdawpy>24",
"dy-u:3psdsey>2su",
"@  .oXO6099;XO6#"
};
