/* XPM */
static char *_7d2b31e53dd488e958bdd9c78f9dd01rs7jYb8bxN0rphZu[] = {
/* columns rows colors chars-per-pixel */
"16 16 42 1 ",
"  c #735A35",
". c #755C36",
"X c #7B5D36",
"o c #765E38",
"O c #785F39",
"+ c #7B613A",
"@ c #7C633B",
"# c #7D633C",
"$ c #7F643C",
"% c #80603B",
"& c #82663E",
"* c #85663E",
"= c #84683F",
"- c #856840",
"; c #8A6941",
": c #8C6C43",
"> c #8C6F45",
", c #9A7C4F",
"< c #9C7F4E",
"1 c #9B7C50",
"2 c #9C7D50",
"3 c #A18153",
"4 c #A28451",
"5 c #A58553",
"6 c #A18354",
"7 c #A28455",
"8 c #A68657",
"9 c #A68956",
"0 c #A78758",
"q c #A78858",
"w c #A98859",
"e c #AC8B5B",
"r c #AB8C5B",
"t c #AC8C5B",
"y c #AE8E5D",
"u c #B28F5F",
"i c #B2915F",
"p c #B39260",
"a c #B59361",
"s c #B79463",
"d c #B99563",
"f c #BA9664",
/* pixels */
"yy3ffpiiipafdaw4",
"y83fdayyyaaiyyy5",
"uw1e7quuuuuuuuuw",
"=-&O@$&#$+ O&-=$",
"wydatwrufu3ffit4",
"wrruayaasy2ffda4",
"7wwwwuuuu6>y078<",
"...... +--&..+-&",
"adaafu3ffffddddt",
"iasasu3dppywwry8",
"668uuw1yww778qu5",
"..+---&.O$@$-& o",
"ffsiiiaddawysy29",
"asiyyyyyyyyadw,8",
"670uuuuuuuyew2>8",
"X@****:;***;*@&%"
};
