/* XPM */
static char *d9a62ae46030488fef9d2e057519df5fzmQgHM1yzK2g5PLH[] = {
/* columns rows colors chars-per-pixel */
"16 16 51 1 ",
"  c #251A29",
". c #241C29",
"X c #2A1E2B",
"o c #2F1F2C",
"O c #2A202B",
"+ c #2B212C",
"@ c #2E202D",
"# c #30202C",
"$ c #35222E",
"% c #35242F",
"& c #3B252F",
"* c #3D262F",
"= c #3E2630",
"- c #3D2A32",
"; c #203432",
": c #2A3A36",
"> c #333E38",
", c #402730",
"< c #412830",
"1 c #472B32",
"2 c #4C2D33",
"3 c #4F2F34",
"4 c #4F3232",
"5 c #533533",
"6 c #553634",
"7 c #5D3836",
"8 c #613A36",
"9 c #633C37",
"0 c #334139",
"q c #35433A",
"w c #724639",
"e c #74473A",
"r c #76493A",
"t c #285F43",
"y c #2D6643",
"u c #2E6944",
"i c #3E7448",
"p c #4D5D40",
"a c #407949",
"s c #45814A",
"d c #47844A",
"f c #4D904C",
"g c #5B9250",
"h c #5A9450",
"j c #5C9651",
"k c #619E51",
"l c #63A252",
"z c #6AAE53",
"x c #6BB053",
"c c #91A28E",
"v c #95A98E",
/* pixels */
"vvvvvvvcvvvvvvvv",
"dzldflzaszxlllzl",
"qkdqyhlt0klpsilj",
"+suO:idq-gd+y0ii",
".y0 =>y-Xsu.>-;:",
"o>%=2=>X y0@==$=",
"o$o221= =>1o=12*",
"6=o8991o2186$#*5",
"r9#wrr9#89er6 5e",
"rr#7err<wrrrr<wr",
"7e6*777=7err8=47",
"8er6**862477=56*",
"7er8,5er9 &*5er6",
"377=2wrrr.567err",
"289,*77e86er97er",
"9er9#897=wrrr=77"
};
